<?xml version="1.0" encoding="utf-8"?><svg xmlns="http://www.w3.org/2000/svg" xmlns:xlink="http://www.w3.org/1999/xlink"><symbol viewBox="0 0 26 26" id="arrow-right" xmlns="http://www.w3.org/2000/svg"><path d="M2 12.825h22m0 0L13.175 2M24 12.825L13.175 24"/></symbol><symbol viewBox="0 0 26 26" id="arrow_link" xmlns="http://www.w3.org/2000/svg"><path d="M5 21L21 5m0 0H5m16 0v16"/></symbol><symbol viewBox="0 0 32 32" id="checkmark" xmlns="http://www.w3.org/2000/svg"><path d="M31 8L13.65 24 2 13.255"/></symbol><symbol viewBox="0 0 40 40" id="close" xmlns="http://www.w3.org/2000/svg"><path d="M4.594 4l32 32M36 4L4 36"/></symbol><symbol viewBox="0 0 82 43" id="logo" xmlns="http://www.w3.org/2000/svg"><path fill-rule="evenodd" clip-rule="evenodd" d="M70.896 18.154V6.465H53.16c-2.757 0-5.299.582-7.552 1.83a13.12 13.12 0 00-5.272 5.349 15.015 15.015 0 00-1.546 4.51h32.106zm0 6.603H38.79c.285 1.611.792 3.125 1.542 4.52 1.242 2.338 3.023 4.137 5.288 5.362 2.25 1.245 4.788 1.824 7.54 1.824h17.736V24.757zm-36.282-6.603H18.853v6.603h15.764c-1.513 7.425-8.04 13.01-15.862 13.01-8.943 0-16.192-7.3-16.192-16.304 0-9.004 7.25-16.303 16.192-16.303 7.817 0 14.34 5.577 15.859 12.994zM78.16 7.457l2.555 2.285-2.408 2.728 2.407 2.727-2.553 2.285-4.426-5.012 4.426-5.013z"/></symbol><symbol viewBox="0 0 40 33" id="logo2" xmlns="http://www.w3.org/2000/svg"><path d="M26.172 29.496c-.416 0-.833-.062-1.213-.185-2.035-.642-3.592-2.961-2.477-6.712.773-2.567 1.57-4.788 2.268-6.75.65-1.813 1.214-3.38 1.508-4.577.307-1.222.22-1.641.196-1.74-.012-.013-.024-.013-.049-.025-.061-.025-.098-.037-.135-.05-.134.136-.453.531-.968 1.704-.564 1.27-1.238 3.134-2.084 5.503a348.071 348.071 0 01-2.967 7.995c-.932 2.406-2.403 3.579-3.482 4.146-1.434.753-3.089.876-4.523.358-2.231-.814-4.07-3.32-2.869-6.91.589-1.727 1.533-3.64 2.55-5.651 1.128-2.258 2.305-4.602 2.783-6.44.54-2.074-.037-2.382-.307-2.53-.343-.185-.576-.16-.82-.074-1.423.543-3.041 3.54-3.752 5.503l-3.273-1.21c.024-.061.551-1.517 1.446-3.134 1.324-2.356 2.783-3.85 4.34-4.454 1.238-.481 2.538-.382 3.727.26 1.483.814 3.04 2.59 2.022 6.502-.576 2.208-1.826 4.713-3.04 7.144-.956 1.9-1.85 3.702-2.354 5.195-.416 1.246-.147 2.159.748 2.48.92.333 2.636-.037 3.568-2.468a319.06 319.06 0 002.93-7.922c2.145-5.947 3.028-8.402 4.977-9.266.858-.383 1.814-.358 2.832.074 1.226.506 2.586 1.74 2.145 4.689-.245 1.604-.956 3.578-1.851 6.083-.687 1.925-1.471 4.096-2.207 6.564-.392 1.308-.22 2.221.172 2.345.564.172 2.023-.531 2.807-2.962l3.322 1.086c-1.213 3.726-3.75 5.43-5.97 5.43z"/><ellipse cx="9.009" cy="10.554" rx=".613" ry=".617"/></symbol><symbol viewBox="0 0 94 94" id="move404" xmlns="http://www.w3.org/2000/svg"><path d="M29.691 18.935L46.626 2l16.935 16.935m-33.87 56.13L46.626 92l16.935-16.935m11.503-43.876L92 48.123 75.065 65.058M18.936 31.189L2 48.123l16.934 16.935"/></symbol><symbol viewBox="0 0 138 35" id="newLogo" xmlns="http://www.w3.org/2000/svg"><path d="M100.934 33.573h7.443V7.063h-7.443v26.51zm36.871-19.453V6.249l-12.377 6.756-12.377-6.756v7.871l8.659 4.672v2.645l-8.659 4.672v7.87l12.377-6.755 12.377 6.756v-7.864l-8.659-4.672v-2.645l8.659-4.679z"/><path d="M125.425 8.488c2.472 0 4.476-1.74 4.476-3.887 0-2.146-2.004-3.886-4.476-3.886s-4.476 1.74-4.476 3.886c0 2.147 2.004 3.887 4.476 3.887zM19.879 7.534a8.721 8.721 0 00-3.247-.61c-4.697.02-7.472 2.027-8.673 4.721v-4.11H.516V33.58h7.436s.036-14.367.05-14.332c.193-3.823 1.094-6.643 4.905-6.643 4.69 0 4.962 4.034 4.962 9.022V33.58h7.444V15.44c0-3.572-2.245-6.644-5.434-7.907zm22.971-.836c-7.694 0-13.936 6.117-13.936 13.673 0 7.548 6.242 13.665 13.936 13.665 5.806 0 10.783-3.48 12.87-8.439h-7.636c-.844 2.013-2.445 3.283-5.234 3.283-3.182 0-5.255-2.56-5.87-6.194h19.592c.136-.758.207-1.537.207-2.33 0-7.534-6.235-13.658-13.929-13.658zm-5.813 10.65c.622-3.515 2.467-5.697 5.813-5.697 3.454 0 5.241 2.133 5.835 5.696H37.037zm33.659-15.96h-7.501v6.117h-4.898v5.38h4.898v.667c.014 3.115.014 6.23.036 9.344v10.67h7.465v-.007h5.806v-5.373h-5.806v-3.178c.007-.007.007-.014.007-.014V12.857h5.799V7.484h-5.806V1.388zm17.302 13.736V7.527h-7.443v26.047h7.443V23.213c0-1.467 0-8.447 8.61-8.447h.028V6.678h-.029c-4.755 0-8.609 3.78-8.609 8.446z"/></symbol><symbol viewBox="0 0 213 22" id="underline" xmlns="http://www.w3.org/2000/svg"><path fill-rule="evenodd" clip-rule="evenodd" d="M197.662 19.006l14.564-14.194-3.266-3.183-11.298 11.012L184.731.038l-12.94 12.612L158.727.055l-13.073 12.603L132.58.055l-13.073 12.603L106.434.055 93.361 12.658 80.288.055 67.215 12.658 54.142.055 41.069 12.658 27.996.055 14.923 12.658 3.473 1.621.226 4.82l14.696 14.168L27.996 6.386 41.069 18.99 54.142 6.386 67.215 18.99 80.288 6.386 93.361 18.99l13.073-12.603 13.073 12.603L132.58 6.386l13.074 12.603 13.073-12.603 13.082 12.612 12.922-12.595 12.931 12.603z"/></symbol></svg>